<svg xmlns="http://www.w3.org/2000/svg" viewBox="0 0 500 456.59"><defs><style>.cls-1{fill:#463c6d;}.cls-2{fill:#45746a;}.cls-3{fill:#6ace99;}.cls-4{fill:#aaf2c8;}.cls-5{fill:#58a07d;}.cls-6{opacity:0.65;}.cls-7{fill:#302b4f;}.cls-8{fill:#bd9675;}.cls-9{fill:#f1c9a7;}.cls-10{opacity:0.32;}.cls-11{fill:#96775e;}.cls-12,.cls-25{fill:#383838;}.cls-12,.cls-24{opacity:0.33;}.cls-13{fill:#ededed;}.cls-14{fill:#ceccd6;}.cls-15{fill:#87654e;}.cls-16{fill:#a37b5d;}.cls-17{fill:#a3a3a3;}.cls-18,.cls-53{fill:#1d2542;}.cls-19{fill:#d2d6ff;}.cls-20{fill:#b1b5f5;}.cls-21{fill:#949ad3;}.cls-22{opacity:0.24;}.cls-23,.cls-27,.cls-30,.cls-47,.cls-51{fill:#fff;}.cls-26{fill:#8080ea;}.cls-27{font-size:10.44px;}.cls-27,.cls-47{font-family:Montserrat-Italic, Montserrat Italic;font-style:italic;}.cls-28{fill:#ad91ce;}.cls-29{fill:#929cf7;}.cls-30{opacity:0.6;}.cls-31{fill:#f4f4f4;}.cls-32{fill:#272b35;}.cls-33{fill:#363b49;}.cls-34{fill:#f8b69c;}.cls-35{fill:#9071af;}.cls-36{opacity:0.21;}.cls-37{fill:#f46e62;}.cls-38{fill:#cccbd1;}.cls-39{fill:#998a99;}.cls-40{opacity:0.35;}.cls-41{fill:#48435e;}.cls-42{fill:#9e663c;}.cls-43{fill:#d1b3f4;}.cls-44{fill:#fcd2b4;}.cls-45{fill:#eabb9b;}.cls-46{fill:#ee6fc8;}.cls-47{font-size:14.53px;}.cls-48{fill:#50c8f9;}.cls-49{fill:#d8d8d8;}.cls-50{fill:#8faae5;}.cls-51{opacity:0.64;}.cls-52{fill:#f8bd45;}.cls-53{opacity:0.23;}.cls-54{fill:#b7b6c1;}</style></defs><g id="Background"><rect class="cls-1" y="-15.35" width="500" height="500"/></g><g id="Objects"><path class="cls-2" d="M493.27,342.19c-1.64-2.53-5.5-2.3-8.18-.92s-5,3.58-7.93,4.26-6.12-.34-9.09.29c-4.49,1-7.52,5.39-11.92,6.67-3.07.9-6.54.19-9.4,1.62-3.55,1.78-4.88,6.18-7.85,8.8-4.19,3.68-10.44,3.09-16,3.69-13.49,1.48-24.54,11-34.66,20,7.29,4,14.62,7.52,22.9,6.8s18.27-4.11,24-12c2.37-3.28,8.66,0,12.34-1.65,3.15-1.44,6.37-2.94,8.77-5.44,2.91-3,4.6-7.49,8.47-9.12,3.32-1.4,7.45-.27,10.49-2.21,2.83-1.8,3.64-5.57,5.87-8.09s5.46-3.49,8.2-5.25,5.14-5.1,3.9-8.11"/><path class="cls-3" d="M459.64,307.32c-2.41-1.53-5.64.21-7.39,2.46s-2.86,5.06-5.12,6.81-5.4,2.14-7.71,3.87c-3.47,2.61-4.32,7.61-7.59,10.47-2.28,2-5.55,2.76-7.44,5.13-2.34,2.93-1.74,7.25-3.25,10.68-2.14,4.83-7.75,6.8-12.27,9.52-11,6.64-16.75,19.18-21.86,31,7.85.51,15.57.65,22.39-3.26s14.09-10.8,15.84-19.89c.73-3.76,7.46-3.41,9.95-6.32,2.13-2.49,4.31-5.07,5.38-8.17,1.29-3.76,1-8.27,3.65-11.21,2.3-2.52,6.3-3.19,8.14-6.06,1.72-2.68.92-6.24,1.83-9.29s3.31-5.17,5-7.77,2.4-6.43.13-8.53"/><path class="cls-4" d="M392,387.4a682.46,682.46,0,0,0,65.17-77.15c.28-.38-.34-.72-.62-.36-20.42,26.84-41.81,52.58-64.75,77.31-.13.13.07.34.2.2Z"/><path class="cls-5" d="M440,249.84c-3.79-.73-7,3-8.08,6.75s-1.09,7.78-3.07,11.09-5.72,5.36-7.77,8.68c-3.07,5-1.66,11.7-4.36,16.91-1.89,3.63-5.62,6.21-6.82,10.12-1.49,4.85,1.4,10,1.19,15-.29,7.12-6.37,12.38-10.7,18-10.56,13.78-11.58,32.38-12.16,49.73,10.12-3.23,19.88-6.88,26.53-15.16s12.36-20.54,10.07-32.83c-.95-5.09,7.69-8,9.38-12.86,1.45-4.19,2.91-8.5,2.72-12.93-.23-5.37-2.86-10.88-.95-15.89,1.64-4.31,6.34-7.13,7.23-11.65.84-4.22-1.93-8.3-2.29-12.58s1.6-8.13,2.4-12.23-.17-9.26-4.05-10.78"/><path class="cls-2" d="M387.94,278.71c-2.72.31-4.08,3.56-4,6.3s.92,5.52.29,8.19-2.74,4.86-3.42,7.55c-1,4,1.37,8.3.65,12.41-.51,2.87-2.49,5.41-2.47,8.33,0,3.61,3.08,6.46,4,9.95,1.32,4.89-1.68,9.76-3.42,14.53-4.22,11.6-.94,24.45,2.37,36.35,6.18-4.35,12-8.91,14.77-16s4-16.57-.17-24.43c-1.73-3.25,3.51-7.05,3.62-10.73.09-3.16.16-6.4-.91-9.36-1.31-3.59-4.27-6.77-4-10.58.19-3.28,2.78-6.19,2.42-9.45-.33-3.05-3.09-5.22-4.24-8.06s-.65-5.86-1-8.81-2.1-6.25-5.06-6.45"/><path class="cls-4" d="M394.9,387.76c16.78-2.79,32-9.92,46.92-17.89,16.12-8.63,32-16.83,48.79-24.19.28-.12.08-.61-.22-.51-32.76,11.81-60.76,36.2-95.57,42.3-.19,0-.11.32.08.29Z"/><path class="cls-4" d="M391.16,383.94a168.78,168.78,0,0,0,28.27-63c2.65-12.06,4.17-24.48,8.81-36,4.42-11,11.51-20.88,13.36-32.79.07-.48-.64-.69-.73-.2-2.15,11.28-8.41,20.76-12.85,31.18-4.87,11.41-6.49,23.73-8.95,35.78a170.58,170.58,0,0,1-28.4,64.76c-.21.3.28.57.49.28Z"/><g class="cls-6"><path class="cls-7" d="M381.27,381.67c.13-9-7-16.14-13.69-22.16-14.22-12.9-29.52-26.33-48.42-29.68-14.9-2.64-30.08,1.37-44.67,5.36L199,355.8,73.87,390l-2.31,4.22c-1.84,10.15,4.18,10.1,12.41,16.31s18.6,8.86,28.81,10.29,20.59,1.81,30.63,4.17c19.19,4.5,36.27,16,55.62,19.82,20,3.93,40.62-.74,60.49-5.38q8.43-2,16.86-4c22,15.65,52.4,18.65,77,7.57,6.63-3,13.69-8.47,13-15.71-.53-5.74-5.77-9.81-10.87-12.46a67.48,67.48,0,0,0-6.9-3.08q7.47-3.54,14.66-7.7C372,399,381.12,391.69,381.27,381.67Z"/></g><path class="cls-3" d="M65.67,167.94c-2.64,1.06-3.12,4.7-2.32,7.44s2.45,5.28,2.54,8.13-1.41,5.63-1.35,8.52c.09,4.34,3.67,7.95,4.07,12.27.29,3-1,6.12-.18,9,1,3.61,4.88,5.64,6.78,8.87,2.67,4.55,1,10.26.58,15.52-1,12.81,5.79,24.79,12.39,35.83,5-6.08,9.61-12.26,10.42-20.09s-.55-17.73-6.91-24.46c-2.63-2.79,1.59-8,.68-11.77-.78-3.19-1.6-6.46-3.49-9.14-2.3-3.24-6.15-5.61-7-9.5-.71-3.34,1.08-7-.18-10.15-1.17-3-4.53-4.39-6.47-6.91S73,175.84,71.85,173,68,167.27,65,167.89"/><path class="cls-4" d="M96.09,260.71c-9.7-30-18.68-60.42-29.12-90.21a.3.3,0,0,0-.57.16c8.94,30.27,19.42,60.16,29.11,90.2.12.37.7.21.58-.15Z"/><path class="cls-5" d="M18.65,153.39c-2.91,2.52-1.93,7.37.29,10.52s5.43,5.69,6.8,9.29.66,7.81,2,11.47c2,5.51,8.15,8.56,10.57,13.91,1.68,3.73,1.39,8.26,3.71,11.63,2.89,4.17,8.69,5.08,12.54,8.38,5.41,4.65,5.76,12.68,7.52,19.59C66.33,255,80.3,267.33,93.55,278.55c3.74-9.95,6.93-19.86,4.55-30.22s-8.45-22.43-19.52-28.25c-4.58-2.42-1.48-11-4.27-15.34-2.39-3.73-4.86-7.55-8.46-10.15-4.35-3.14-10.31-4.49-13.06-9.1-2.36-4-1.66-9.39-4.65-12.9-2.79-3.27-7.71-3.62-11.29-6s-5.39-6.3-8.11-9.47-7.37-5.61-11-3.5"/><path class="cls-2" d="M9,212.13c-1.44,2.33.26,5.42,2.44,7.08s4.9,2.7,6.6,4.85,2.12,5.16,3.8,7.36c2.55,3.31,7.37,4.08,10.15,7.19,1.93,2.17,2.7,5.31,5,7.1,2.85,2.22,7,1.59,10.3,3,4.66,2,6.62,7.38,9.28,11.69,6.49,10.51,18.61,15.9,30,20.68.41-7.55.46-15-3.37-21.48S72.71,246.19,64,244.6c-3.62-.66-3.35-7.13-6.17-9.5-2.42-2-4.92-4.09-7.91-5.08-3.63-1.21-8-.85-10.81-3.4-2.45-2.18-3.13-6-5.91-7.75-2.6-1.63-6-.82-8.95-1.67s-5-3.12-7.52-4.69-6.2-2.24-8.2,0"/><path class="cls-4" d="M11.2,211.27c13.25,11.38,26.92,22.29,40.43,33.36,12.53,10.25,26.94,19.82,36.68,32.92.12.16.39,0,.27-.16-8.58-12.9-23.18-22.24-35-31.92-14-11.49-27.94-23.17-42.24-34.33-.09-.06-.22.05-.13.13Z"/><path class="cls-4" d="M93.66,261.82c-5.62-10.7-11.4-21.38-18.53-31.17-6.2-8.5-13.54-16-20.42-24a129,129,0,0,1-18.55-28.35c-4.42-9-9.26-18.13-18.07-23.51-.34-.2-.64.32-.31.54,9.83,6.62,14.6,17,19.7,27.28A116.86,116.86,0,0,0,54.2,207.18c7,8.13,14.59,15.83,20.9,24.56,6.93,9.56,12.47,20,18.13,30.33a.25.25,0,0,0,.43-.25Z"/><polygon class="cls-8" points="75.95 270.19 75.95 279.33 170.4 315.9 400.06 249.59 398.54 242 75.95 270.19"/><polygon class="cls-9" points="76.02 269.89 169.94 306.99 398.54 242 313.97 208.51 76.02 269.89"/><g class="cls-10"><path class="cls-11" d="M91.2,286.07c-2.73-17.13,23.23-16.75,30.23-28.46a.33.33,0,0,0-.58-.33c-5.18,8.65-15.53,9.4-23.25,14.67-4.78,3.26-8.17,8.35-6.93,14.26.07.35.58.2.53-.14Z"/><path class="cls-11" d="M104.26,290.6c14.53-9.39,40.23-16,39.1-37.82,0-.38-.61-.38-.6,0,1.07,21.74-24.35,27.87-38.7,37.48-.2.14,0,.48.2.34Z"/><path class="cls-11" d="M117.15,296.44c26.78-31.32,66.7-41.28,100.39-62.69.35-.22,0-.79-.34-.56-32.84,20.63-76,30.86-100.22,63.12-.07.1.09.23.17.13Z"/><path class="cls-11" d="M321.44,212.66c-19.71,25.54-54.45,23.49-82.58,31.67-14.64,4.25-27.53,12.86-42.15,17.1-13.49,3.91-28.19,3.71-40.81,10.44a49.37,49.37,0,0,0-24,30.09.27.27,0,0,0,.52.14,48.33,48.33,0,0,1,27.17-31.37c13.72-5.87,29.16-5.49,43.12-10.71,14.4-5.39,27.48-13.21,42.59-16.78,14.52-3.43,29.53-4.7,43.8-9.17,12.6-3.95,24.73-10.36,32.66-21.2.16-.21-.2-.41-.35-.21Z"/><path class="cls-11" d="M144.81,305c-1-14.26,8-28.32,21.79-32.74,15.12-4.85,30.76,4.09,46.16,1.92,14.31-2,26.45-10.5,38.59-17.69,14.82-8.77,30.38-13,47-16.93a264.43,264.43,0,0,0,49.78-17c.37-.17.05-.71-.32-.54a266.62,266.62,0,0,1-49.64,16.92c-16.36,3.87-31.78,7.9-46.33,16.59-14.72,8.78-29.8,19.63-47.79,18.66-14-.75-28.52-7.31-42-.4-11.37,5.83-18.69,18.46-17.49,31.23,0,.17.27.17.26,0Z"/><path class="cls-11" d="M354.89,225.33c-2.81,7.82-11.22,10.44-18.67,11.69-8.39,1.39-16.9,1.78-25.37,2.39-14.8,1.07-29,3.36-42.06,10.8C256.35,257.3,245.62,267,233.08,274c-14.34,7.94-30.51,10.06-46.18,14-14.21,3.62-28.21,9.4-37.52,21.22a.27.27,0,1,0,.43.33c19.75-25.92,57.89-20.79,84.19-35.63,12.93-7.3,24-17.48,37.12-24.49,15.5-8.29,32.63-8.89,49.76-10.23,11-.85,29.86-1,34.2-13.81,0-.12-.14-.17-.19,0Z"/><path class="cls-11" d="M226.25,231.33c-2.12,1.76-22.62,15.3-13.09,17.76,4,1,9.23-1.78,12.62-3.62,6.27-3.41,11.82-7.83,18.68-10.12,12.9-4.3,26.89-3.23,39.88-7.45,11.44-3.72,22-10,29.84-19.18.24-.28-.17-.69-.41-.41-7.24,8.55-16.78,14.55-27.29,18.32-10.18,3.65-20.7,4.25-31.3,5.8-10.12,1.47-17.74,5.37-26.33,10.63a51,51,0,0,1-7.43,3.9,25,25,0,0,1-4.29,1.39l-2.66.35c-.76-1.61-1.51-3.22-2.27-4.82.23-1.42,5.67-4.91,6.87-5.93,2.48-2.13,4.93-4.28,7.39-6.42.14-.12-.07-.32-.21-.2Z"/><path class="cls-11" d="M206.88,267.8c12.46,4.68,21.92-6.1,31.21-12.52a39.1,39.1,0,0,1,4.42-2.68c1.88-.95,5.05-1.22,6.7-2.49.69-.52,1.46-.7,1.29-1.78-.34-2.12-4.68-2-6-1.86-5.53.39-11.29,3.11-16.29,5.36-3.24,1.45-6.4,3-9.52,4.73-2,1-6.14,2.59-7.48,4.41-1,1.39-1.54,2.72.3,3.61s6-1.34,7.59-2a54,54,0,0,0,9.31-5c.23-.16,0-.53-.22-.38-3.3,2-8.54,6-12.54,6.21q-3.12,2-2.89-2.9l2.31-1.31c1.8-1,3.62-2,5.45-3a122.18,122.18,0,0,1,12.77-5.93c3.19-1.24,7.74-3.59,11.24-3.21,2-.64,3.11.38,3.39,3.07a21.78,21.78,0,0,0-3.27,1,28.15,28.15,0,0,0-3.14,1.49,59.81,59.81,0,0,0-8.53,6c-7.49,5.86-16,12.61-26.08,9.07-.1,0-.14.12,0,.15Z"/><path class="cls-11" d="M187.78,311.56c3.86-20.91,29.33-20.87,45.32-25.83,15.54-4.82,28.87-14.56,42.61-22.93a126.72,126.72,0,0,1,23.05-11.55c8.43-3,17.25-4.66,26-6.13,16.44-2.73,33.19-4.85,48-13.05a.38.38,0,0,0-.39-.66c-24.94,13.75-55,10.31-80.7,21.92-12.59,5.68-23.79,13.88-35.6,21a116.51,116.51,0,0,1-19.34,9.61c-6.9,2.56-14.1,3.72-21.23,5.35-12,2.76-25.7,8.69-27.89,22.27,0,.1.12.14.14,0Z"/><path class="cls-11" d="M268.38,289.32c1-13.37,14.22-19.72,25.05-24.49a196.27,196.27,0,0,1,33.78-10.9c10.75-2.57,21.63-4.58,32.48-6.68,9.28-1.79,18.69-3.54,26.22-9.65.32-.26-.13-.71-.45-.45-9.59,7.84-23,8.95-34.72,11.23-12,2.33-24,4.76-35.78,8.16a154.44,154.44,0,0,0-31.24,12.4c-7.89,4.31-15.69,10.62-15.83,20.38a.25.25,0,0,0,.49,0Z"/><path class="cls-11" d="M296.83,279.06c11.84-13.62,27.34-23,45.59-24.59,16.65-1.48,35.61,3.9,50.1-7.06.27-.21,0-.68-.28-.47-16.81,11.91-37.94,4.19-56.79,8-15.05,3-29.68,11.53-38.92,23.91-.13.17.15.4.3.23Z"/></g><path class="cls-12" d="M290.63,230.15a5.66,5.66,0,0,0-2.1,8.63c.12.15.28.27.4.43,2.61,3.55,8.94,10.08,10.62,10,3-.11,7.26-4.9,7.22-6s-5.74-9.22-8.83-12.1C296.18,229.46,293.88,228.57,290.63,230.15Z"/><path class="cls-13" d="M292.66,228.22a5.65,5.65,0,0,0-2.1,8.62c.12.15.28.27.4.44,2.61,3.55,8.94,10.07,10.62,10,3-.12,7.26-4.9,7.22-6s-5.74-9.22-8.83-12.11C298.21,227.53,295.91,226.63,292.66,228.22Z"/><path class="cls-14" d="M293.89,230.46a1.55,1.55,0,0,1,1.71.11,4.45,4.45,0,0,1,1.18,1.37,1.16,1.16,0,0,1,.25.67c0,.24-.27.47-.49.36a.49.49,0,0,1-.17-.15c-.74-.88-1.71-1.51-2.45-2.39"/><path class="cls-14" d="M308.53,240.71a5.73,5.73,0,0,1-3,5c-1.89,1-6.12.43-7.9-.77a27.1,27.1,0,0,1-4.51-4.51c-3.09-3.51-5.83-10.57,1.16-12.36a5.73,5.73,0,0,1,5.28,1.25c2.3,1.86,3.93,4.57,5.67,6.92a28.48,28.48,0,0,1,3.19,4.61c.13.29.64.08.52-.22-1.52-3.74-5.22-7.74-7.84-10.75-2.92-3.36-8.43-3.74-11,.47-3.65,5.94,4.16,13.37,8.67,16.21,4,2.5,10.62-.95,10.05-5.86C308.8,240.53,308.53,240.52,308.53,240.71Z"/><polygon class="cls-15" points="308.28 303.84 368.23 327.29 360.12 310.97 308.28 291.15 302.41 302.83 308.28 303.84"/><polygon class="cls-16" points="332.39 254.52 383.96 400.07 396.78 398.04 347.64 258.69 332.39 254.52"/><polygon class="cls-15" points="325.05 251.67 268.05 349.93 281.86 349.93 334.63 260.84 332.39 254.52 325.05 251.67"/><path class="cls-12" d="M202.47,263.13c10.07-3.15,66.43-22,73.38-24.35a1,1,0,0,1,1.16.35l15.63,20a1.07,1.07,0,0,1-.5,1.66L220,285.33a1.05,1.05,0,0,1-1.15-.33L202,264.82A1.06,1.06,0,0,1,202.47,263.13Z"/><path class="cls-14" d="M201.58,260.63v1.24a1,1,0,0,0,.24.65l17.66,20.66a1,1,0,0,0,1.09.3l72.94-25.11a1,1,0,0,0,.68-1h0c0-.57,0-1-.33-1.11l-91.31,3.32A1,1,0,0,0,201.58,260.63Z"/><path class="cls-13" d="M201.58,259.66c.91,0,75.61-25,75.61-25l17,21.75-74.25,25.27Z"/><polygon class="cls-14" points="206.76 260.5 207.87 261.7 211.85 260.2 211.02 259.05 206.76 260.5"/><polygon class="cls-14" points="212.59 258.31 213.72 259.49 217.67 257.91 216.82 256.78 212.59 258.31"/><polygon class="cls-14" points="218.85 256.25 219.99 257.44 223.94 255.86 223.08 254.72 218.85 256.25"/><polygon class="cls-14" points="225.11 254.2 226.25 255.39 230.2 253.8 229.34 252.67 225.11 254.2"/><polygon class="cls-14" points="231.38 252.15 232.51 253.33 236.46 251.75 235.6 250.62 231.38 252.15"/><polygon class="cls-14" points="237.64 250.09 238.77 251.28 242.72 249.7 241.87 248.56 237.64 250.09"/><polygon class="cls-14" points="243.9 248.04 245.04 249.22 248.99 247.64 248.13 246.51 243.9 248.04"/><polygon class="cls-14" points="250.16 245.99 251.3 247.17 255.25 245.59 254.39 244.45 250.16 245.99"/><polygon class="cls-14" points="256.43 243.93 257.56 245.12 261.51 243.53 260.66 242.4 256.43 243.93"/><polygon class="cls-14" points="262.69 241.88 263.83 243.06 267.78 241.48 266.92 240.35 262.69 241.88"/><polygon class="cls-14" points="268.95 239.82 270.09 241.01 274.04 239.43 273.18 238.29 268.95 239.82"/><polygon class="cls-14" points="215.23 265.23 211.8 266.74 209.82 264.02 213.21 262.64 215.23 265.23"/><polygon class="cls-14" points="220.71 263.05 217.28 264.55 215.3 261.84 218.68 260.46 220.71 263.05"/><polygon class="cls-14" points="226.89 261.36 223.41 262.73 221.53 259.94 224.97 258.7 226.89 261.36"/><polygon class="cls-14" points="232.45 259.39 228.97 260.77 227.09 257.98 230.53 256.73 232.45 259.39"/><polygon class="cls-14" points="238.01 257.43 234.53 258.8 232.65 256.01 236.09 254.77 238.01 257.43"/><polygon class="cls-14" points="243.57 255.47 240.09 256.84 238.21 254.04 241.65 252.8 243.57 255.47"/><polygon class="cls-14" points="249.13 253.5 245.65 254.87 243.77 252.08 247.21 250.84 249.13 253.5"/><polygon class="cls-14" points="254.69 251.53 251.21 252.91 249.33 250.12 252.77 248.87 254.69 251.53"/><polygon class="cls-14" points="260.93 249.55 257.45 250.92 255.58 248.13 259.01 246.88 260.93 249.55"/><polygon class="cls-14" points="267.18 247.56 263.7 248.93 261.83 246.14 265.26 244.9 267.18 247.56"/><polygon class="cls-14" points="273.43 245.57 269.95 246.94 268.07 244.15 271.51 242.91 273.43 245.57"/><polygon class="cls-14" points="279.68 243.58 276.19 244.96 274.32 242.16 277.76 240.92 279.68 243.58"/><polygon class="cls-14" points="218.36 268.82 214.94 270.33 212.96 267.61 216.34 266.24 218.36 268.82"/><polygon class="cls-14" points="223.84 266.64 220.42 268.15 218.44 265.43 221.82 264.05 223.84 266.64"/><polygon class="cls-14" points="230.02 264.95 226.54 266.32 224.67 263.53 228.11 262.29 230.02 264.95"/><polygon class="cls-14" points="235.58 262.99 232.1 264.36 230.23 261.57 233.66 260.32 235.58 262.99"/><polygon class="cls-14" points="241.14 261.02 237.66 262.39 235.79 259.6 239.22 258.36 241.14 261.02"/><polygon class="cls-14" points="246.7 259.06 243.22 260.43 241.35 257.64 244.78 256.39 246.7 259.06"/><polygon class="cls-14" points="252.26 257.09 248.78 258.46 246.91 255.67 250.34 254.43 252.26 257.09"/><polygon class="cls-14" points="257.82 255.13 254.34 256.5 252.47 253.71 255.9 252.47 257.82 255.13"/><polygon class="cls-14" points="264.07 253.14 260.59 254.51 258.72 251.72 262.15 250.48 264.07 253.14"/><polygon class="cls-14" points="270.32 251.15 266.84 252.53 264.96 249.73 268.4 248.49 270.32 251.15"/><polygon class="cls-14" points="276.56 249.16 273.08 250.54 271.21 247.74 274.65 246.5 276.56 249.16"/><polygon class="cls-14" points="282.81 247.18 279.33 248.55 277.46 245.76 280.89 244.51 282.81 247.18"/><polygon class="cls-14" points="221.76 272.74 218.34 274.25 216.36 271.53 219.74 270.16 221.76 272.74"/><polygon class="cls-14" points="227.24 270.56 223.82 272.07 221.84 269.35 225.22 267.98 227.24 270.56"/><polygon class="cls-14" points="233.42 268.88 229.94 270.25 228.07 267.46 231.5 266.21 233.42 268.88"/><polygon class="cls-14" points="238.98 266.91 235.5 268.28 233.63 265.49 237.06 264.25 238.98 266.91"/><polygon class="cls-14" points="244.54 264.95 241.06 266.32 239.19 263.53 242.62 262.28 244.54 264.95"/><polygon class="cls-14" points="250.1 262.98 246.62 264.35 244.75 261.56 248.18 260.32 250.1 262.98"/><polygon class="cls-14" points="255.66 261.02 252.18 262.39 250.31 259.6 253.74 258.35 255.66 261.02"/><polygon class="cls-14" points="261.22 259.05 257.74 260.42 255.87 257.63 259.3 256.39 261.22 259.05"/><polygon class="cls-14" points="267.47 257.06 263.99 258.44 262.12 255.64 265.55 254.4 267.47 257.06"/><polygon class="cls-14" points="273.72 255.07 270.24 256.45 268.36 253.66 271.8 252.41 273.72 255.07"/><polygon class="cls-14" points="279.96 253.09 276.48 254.46 274.61 251.67 278.05 250.42 279.96 253.09"/><polygon class="cls-14" points="286.21 251.1 282.73 252.47 280.86 249.68 284.29 248.44 286.21 251.1"/><polygon class="cls-14" points="224.83 276.63 221.4 278.14 219.42 275.42 222.81 274.05 224.83 276.63"/><polygon class="cls-14" points="230.31 274.45 226.88 275.96 224.9 273.24 228.28 271.87 230.31 274.45"/><polygon class="cls-14" points="236.49 272.76 233.01 274.14 231.13 271.35 234.57 270.1 236.49 272.76"/><polygon class="cls-14" points="242.05 270.8 238.57 272.17 236.69 269.38 240.13 268.14 242.05 270.8"/><polygon class="cls-14" points="247.61 268.83 244.13 270.21 242.25 267.42 245.69 266.17 247.61 268.83"/><polygon class="cls-14" points="253.17 266.87 249.69 268.24 247.81 265.45 251.25 264.21 253.17 266.87"/><polygon class="cls-14" points="258.73 264.9 255.25 266.28 253.37 263.49 256.81 262.24 258.73 264.9"/><polygon class="cls-14" points="264.29 262.94 260.81 264.31 258.93 261.52 262.37 260.28 264.29 262.94"/><polygon class="cls-14" points="270.54 260.95 267.05 262.32 265.18 259.53 268.62 258.29 270.54 260.95"/><polygon class="cls-14" points="276.78 258.96 273.3 260.34 271.43 257.54 274.86 256.3 276.78 258.96"/><polygon class="cls-14" points="283.03 256.98 279.55 258.35 277.68 255.56 281.11 254.31 283.03 256.98"/><polygon class="cls-14" points="289.28 254.99 285.8 256.36 283.92 253.57 287.36 252.32 289.28 254.99"/><path class="cls-17" d="M277.11,234.34l-75.61,25a.3.3,0,0,0-.22.29c0,3.09.43,3.2,2.46,5.56q5,5.82,10,11.6c1.47,1.68,4.17,6.29,6.37,7.09,1.17.42,3.55-1.18,5-1.67,16.79-5.86,33.63-11.58,50.44-17.36l18.06-6.22c.37-.13.21-.71-.16-.58-23.17,8-46.45,15.67-69.52,23.93-3.33,1.19-3.33,1.61-5.59-.91-2.72-3-5.38-6.12-8-9.2-1.49-1.73-10.43-9.85-8.24-12.08.78-.79,3.43-1.13,4.46-1.48l8.42-2.78,23.6-7.82,38.75-12.83c.36-.12.21-.7-.16-.57Z"/><path class="cls-17" d="M201.77,259.3c5.78,7.24,11.73,14.41,17.83,21.39.21.23.53-.11.34-.34-5.8-7.22-11.83-14.32-18-21.27-.13-.14-.33.07-.21.22Z"/><ellipse class="cls-8" cx="133.24" cy="276.09" rx="8.12" ry="2.05"/><path class="cls-18" d="M193.73,231.7c6.09,6.35,2.11,15.41-6.39,16-4,.26-8.22-.77-12.26-.79a52.12,52.12,0,0,0-20.18,3.61C143.62,255.14,135.66,266,133.82,278c-.09.56.77.8.86.24A36,36,0,0,1,148.6,255c7.71-5.65,18-7.34,27.34-7.18,6.49.11,15,2.85,19.6-3.34,3.13-4.21,2.11-9.53-1.55-13a.18.18,0,0,0-.26.26Z"/><polygon class="cls-15" points="110.13 350.94 170.08 374.39 161.97 358.07 110.13 338.24 104.26 349.92 110.13 350.94"/><polygon class="cls-16" points="134.25 301.61 185.82 447.17 198.63 445.14 150.21 307.79 134.25 301.61"/><polygon class="cls-15" points="126.91 298.77 69.91 397.03 83.72 397.03 136.49 307.94 134.25 301.61 126.91 298.77"/><path class="cls-19" d="M168.19,271.73s-14.52,4.72-11.73,10.39,13.92,6.5,21.58,5.45c8.14-1.11,17.12-6,14.16-12.89S168.19,271.73,168.19,271.73Z"/><path class="cls-20" d="M159.27,262.61l6.09,15.85A9,9,0,0,0,168,281a16.43,16.43,0,0,0,15.56-2.65l1.25-18.5a5.88,5.88,0,0,0-2.79-5.07c-2.79-1.7-7.77-3.38-15.42-1.36C158.42,255.6,159.27,262.61,159.27,262.61Z"/><path class="cls-20" d="M185.25,261.42c2.67-1.53,5,1.27,4.55,3.88-.36,2-2.61,5.26-5,4.07-1.43-.72-2.7,1.43-1.26,2.15,4.2,2.11,8.42-2.28,8.79-6.35.42-4.58-4.11-8.34-8.35-5.91a1.25,1.25,0,0,0,1.26,2.16Z"/><path class="cls-8" d="M182.9,259.37a5.94,5.94,0,0,1-2.8,3.37,12.63,12.63,0,0,1-4.31,1.27,36.18,36.18,0,0,1-12.28-.27,4.62,4.62,0,0,1-2.31-.95,3.22,3.22,0,0,1-.46-3.71,7,7,0,0,1,2.85-2.74c5.62-3.33,13.88-2.9,18.17-.12A3,3,0,0,1,182.9,259.37Z"/><path class="cls-21" d="M160.75,261.5c-.77-5.34,7.51-7.06,11.1-7.22s8.11.52,10.45,3.47c.21.26.65-.08.46-.36-2.72-4-9.41-4.29-13.7-3.46-3.61.7-10.1,2.95-8.76,7.7.08.29.49.16.45-.13Z"/><path class="cls-21" d="M183.5,278.29c-5,3-13.31,6.6-17.47.21-2.49-3.83-3.68-9.57-5.32-13.86-1.5-3.93-1.9-7.18,2.52-9.7,3.87-2.2,9.68-2.53,14-1.72,8.66,1.63,7.34,8.84,6.78,15.57-.26,3.19-.54,6.39-.68,9.59,0,.32.46.31.49,0,.53-5.89,1.89-13,1.26-18.84-.88-8.21-12.59-7.93-18.44-6.43-3.33.85-6.45,2.51-7.49,6-1.17,4,2.32,9,3.7,12.6,1.79,4.68,2.13,9.54,7.59,10.58,4.75.91,9.54-.9,13.21-3.84C183.73,278.38,183.6,278.22,183.5,278.29Z"/><path class="cls-18" d="M168.24,267.85a11.34,11.34,0,0,0,.23,1.4,3.31,3.31,0,0,0,.4,1.36c.14.19.52.22.56-.07a2.9,2.9,0,0,0-.21-1.29,13.33,13.33,0,0,0-.49-1.47c-.09-.23-.52-.24-.49.07Z"/><path class="cls-18" d="M171.17,267.51c.06.46.1.92.17,1.38a4.51,4.51,0,0,0,.27,1.38.31.31,0,0,0,.56-.07,3,3,0,0,0-.15-1.3,9,9,0,0,0-.49-1.44c-.07-.17-.39-.17-.36.05Z"/><path class="cls-18" d="M166.39,270.9c.37,2.33,3,3.42,5.1,3a4.46,4.46,0,0,0,3.4-5.06c-.08-.46-.79-.34-.8.1,0,2-1,3.76-3,4.21s-3.38-.9-4.48-2.31c-.07-.1-.19,0-.18.11Z"/><path class="cls-21" d="M163.32,273c-3,1.42-9.18,4.38-8,8.7,1.52,5.64,10.9,6.66,15.51,6.9,6.85.36,15-.54,19.82-6,3-3.38,3.81-8.38-.33-11.09-.47-.31-.87.42-.43.74,7.81,5.58-2.76,13.08-7.41,14.53a34,34,0,0,1-12.51,1.1c-3.06-.23-12.62-1.42-13.5-5.43-1-4.6,3.55-7.56,7-9.23.13-.06,0-.25-.11-.19Z"/><g class="cls-22"><path class="cls-18" d="M160.92,261.64c1.5-4.69,6.45-6.44,11-6.56,3.5-.09,9.11.43,9.94,4.82a.5.5,0,0,0,1-.13c-.76-9.27-22.14-7.34-22.38,1.8a.24.24,0,0,0,.47.07Z"/></g><g class="cls-22"><path class="cls-23" d="M166.69,259.88a5.42,5.42,0,0,1-3-6,9.1,9.1,0,0,1,3.42-4.63,20.78,20.78,0,0,0,4.26-4c1.1-1.62,1.52-3.9.38-5.5-1.27-1.78-3.9-2-5.37-3.67a5.28,5.28,0,0,1-.9-4.94,13.08,13.08,0,0,1,2.63-4.51c-1.06,1.82-.39,4.25,1,5.81a14.28,14.28,0,0,0,5.35,3.24,16.94,16.94,0,0,1,5.47,3.08,8.33,8.33,0,0,1,0,11.48,12.1,12.1,0,0,0-1.64,1.64,2,2,0,0,0-.22,2.18,6.1,6.1,0,0,0,1,1,3.11,3.11,0,0,1,.16,3.86,5.09,5.09,0,0,1-3.58,1.94,15,15,0,0,1-4.17-.27"/></g><g class="cls-24"><path class="cls-25" d="M155.32,281.19c-.32,3.45,2,6.74,5,8.41s6.62,2,10.08,1.85A30.09,30.09,0,0,0,181.87,289a18.29,18.29,0,0,0,8.61-7.73c-3.45,4.26-9,6.47-14.45,6.79s-10.91-1.07-16.05-3a10.68,10.68,0,0,1-2.91-1.44,4,4,0,0,1-1.66-2.7"/></g><polygon class="cls-26" points="198.34 96.42 204.11 121.34 243.07 115.07 237.35 89.74 198.34 96.42"/><text class="cls-27" transform="matrix(0.98, -0.2, 0.2, 0.98, 207.54, 112.19)">HTML</text><path class="cls-26" d="M232.49,115.86s5.63,6.92,5.5,6.53-1.06-7.56-1.06-7.56l-5.33.52"/><path class="cls-28" d="M397.68,108.56a80.68,80.68,0,0,0-10.84,5.23.34.34,0,0,0,0,.58c3.37,2.52,6.81,4.93,10.17,7.46.32.24.67-.1.7-.4a72.54,72.54,0,0,0,.34-12.59c0-.66-1.06-.66-1,0a91.25,91.25,0,0,1-.24,12.59l.7-.41c-1.6-1.09-3.18-2.21-4.76-3.33L390.36,116a16.16,16.16,0,0,1-2.38-1.67c-.24-1.47,8.55-4.78,9.83-5.3.3-.12.17-.6-.13-.48Z"/><path class="cls-28" d="M220,3.17A80.68,80.68,0,0,0,209.12,8.4a.34.34,0,0,0,0,.58c3.37,2.52,6.81,4.93,10.17,7.46.32.24.67-.1.7-.4a72.54,72.54,0,0,0,.34-12.59c0-.66-1.06-.66-1,0A92.86,92.86,0,0,1,219.06,16l.7-.41c-1.6-1.09-3.18-2.21-4.76-3.33l-2.36-1.68A16.16,16.16,0,0,1,210.26,9c-.23-1.47,8.55-4.78,9.83-5.3.3-.12.17-.6-.13-.48Z"/><path class="cls-28" d="M123.05,65.73A80.68,80.68,0,0,0,112.21,71a.34.34,0,0,0,0,.58c3.37,2.52,6.81,4.93,10.17,7.46.32.24.66-.1.7-.4A72.54,72.54,0,0,0,123.42,66c0-.66-1.06-.66-1,0a91.25,91.25,0,0,1-.24,12.59l.7-.41c-1.6-1.09-3.18-2.2-4.76-3.33l-2.37-1.68a16.59,16.59,0,0,1-2.37-1.67c-.24-1.47,8.55-4.78,9.83-5.3.3-.11.17-.6-.13-.48Z"/><path class="cls-28" d="M283.79,84.05a113.63,113.63,0,0,0,7.87,15,.34.34,0,0,0,.58,0c3.38-4.88,6.65-9.85,10.05-14.72.22-.32-.09-.68-.41-.71a107,107,0,0,0-17.81.1c-.65,0-.66,1.08,0,1a110.29,110.29,0,0,1,12.33-.43c.67,0,2.76-.21,3.43.13,1.14.57,1.11,0,.16,1.71s-2.3,3.45-3.42,5.13a59.27,59.27,0,0,1-3.41,5.13c-.55.65-.6,1.38-1.62,1.2-.49-.09-1.46-2.4-1.69-2.79a104.6,104.6,0,0,1-5.62-11c-.13-.3-.57,0-.44.25Z"/><path class="cls-28" d="M309.87,180.24a6.18,6.18,0,0,1,5.33,5.41,5.69,5.69,0,1,1-11.34.86,6.1,6.1,0,0,1,5.13-6.09c.44-.1.35-.87-.11-.81a6.75,6.75,0,0,0-5.92,6.9,6.56,6.56,0,0,0,13.09.08,6.63,6.63,0,0,0-6.12-6.84c-.27,0-.34.44-.06.49Z"/><path class="cls-28" d="M338.44,80.18A1.91,1.91,0,0,1,340,81.85a1.71,1.71,0,0,1-1.58,1.72,1.68,1.68,0,0,1-1.63-1.47,1.81,1.81,0,0,1,1.48-1.76c.43-.13.36-.83-.11-.8a2.46,2.46,0,0,0-2.27,2.56,2.56,2.56,0,0,0,2.53,2.36,2.53,2.53,0,0,0,2.4-2.33,2.38,2.38,0,0,0-2.31-2.44.25.25,0,0,0-.07.49Z"/><path class="cls-28" d="M158.36,35.22a1.91,1.91,0,0,1,1.55,1.68,1.61,1.61,0,0,1-3.21.25,1.81,1.81,0,0,1,1.48-1.76.41.41,0,0,0-.11-.81,2.47,2.47,0,0,0-2.27,2.57,2.57,2.57,0,0,0,2.53,2.35,2.51,2.51,0,0,0,2.4-2.32,2.37,2.37,0,0,0-2.31-2.44.24.24,0,0,0-.06.48Z"/><path class="cls-28" d="M83,116.82a1.91,1.91,0,0,1,1.55,1.68,1.61,1.61,0,0,1-3.21.25A1.83,1.83,0,0,1,82.79,117a.41.41,0,0,0-.11-.8,2.47,2.47,0,0,0-2.27,2.57,2.57,2.57,0,0,0,2.53,2.35,2.52,2.52,0,0,0,2.4-2.33A2.36,2.36,0,0,0,83,116.34a.24.24,0,0,0-.06.48Z"/><path class="cls-28" d="M104.5,168.15a6.18,6.18,0,0,1,5.33,5.41,5.69,5.69,0,1,1-11.34.86,6.11,6.11,0,0,1,5.13-6.09c.44-.1.35-.87-.11-.81a6.75,6.75,0,0,0-5.92,6.9,6.56,6.56,0,0,0,13.09.08,6.62,6.62,0,0,0-6.12-6.83c-.27,0-.34.44-.06.48Z"/><path class="cls-28" d="M405,161.3a112.45,112.45,0,0,0-4.58,12.79c-.17.54.66.76.84.23a111.94,111.94,0,0,0,4.11-12.87c0-.21-.27-.37-.37-.15Z"/><path class="cls-28" d="M397.24,166c4.17,1.85,8.54,3.33,12.84,4.84.61.21.86-.74.26-1-4.25-1.54-8.53-3.16-12.89-4.36-.28-.08-.49.35-.21.48Z"/><path class="cls-28" d="M354.3,24.11a112.61,112.61,0,0,0-4.58,12.8c-.18.53.65.75.84.23a112.73,112.73,0,0,0,4.11-12.88c0-.21-.27-.37-.37-.15Z"/><path class="cls-28" d="M346.52,28.81c4.17,1.85,8.54,3.33,12.84,4.84.6.21.86-.74.26-.95-4.25-1.55-8.53-3.17-12.89-4.37-.28-.08-.49.36-.21.48Z"/><path class="cls-28" d="M97,22.08a112.45,112.45,0,0,0-4.58,12.79c-.18.54.65.76.84.24A112.73,112.73,0,0,0,97.4,22.23c0-.21-.27-.37-.37-.15Z"/><path class="cls-28" d="M89.25,26.78c4.17,1.85,8.54,3.33,12.84,4.84.6.21.86-.74.26-.95-4.25-1.55-8.53-3.17-12.89-4.37-.28-.08-.49.36-.21.48Z"/><path class="cls-28" d="M151.74,103.33A39,39,0,0,0,156,117c.21.37.85.12.69-.29a104.06,104.06,0,0,1-4.42-13.44c-.07-.29-.57-.24-.53.07Z"/><path class="cls-28" d="M157,116.3c3.88-.26,7.78-.87,11.63-1.4.44-.06.34-.83-.1-.77-3.86.5-7.78.94-11.59,1.71a.24.24,0,0,0,.06.46Z"/><path class="cls-28" d="M169.21,114.07A86.53,86.53,0,0,0,166,102.29a.46.46,0,0,0-.88.25,87.31,87.31,0,0,0,3.56,11.67.26.26,0,0,0,.51-.14Z"/><path class="cls-28" d="M152,103.38c4.17-.28,8.34-.75,12.5-1.2.54-.05.54-.9,0-.85-4.2.44-8.41.86-12.58,1.47-.33,0-.25.6.08.58Z"/><path class="cls-28" d="M386.68,54.66A38.82,38.82,0,0,0,391,68.32c.2.37.84.12.69-.29a104.1,104.1,0,0,1-4.43-13.44c-.07-.29-.56-.23-.53.07Z"/><path class="cls-28" d="M391.89,67.63c3.89-.26,7.78-.87,11.64-1.4.43-.06.33-.83-.11-.77-3.86.5-7.78.94-11.59,1.71a.24.24,0,0,0,.06.46Z"/><path class="cls-28" d="M404.15,65.4A86.49,86.49,0,0,0,401,53.62a.46.46,0,0,0-.88.25,85.83,85.83,0,0,0,3.55,11.67.26.26,0,0,0,.51-.14Z"/><path class="cls-28" d="M387,54.71c4.17-.28,8.34-.75,12.5-1.2.54,0,.54-.9,0-.85-4.19.44-8.41.86-12.58,1.47-.33,0-.25.6.08.58Z"/><polygon class="cls-12" points="142.3 305.02 192.32 446.14 185.82 447.17 134.25 301.61 142.3 305.02"/><polygon class="cls-12" points="115.34 343.63 154.98 360.12 158.62 369.91 110.13 350.94 115.34 343.63"/><path class="cls-12" d="M134.25,301.61C132.19,302,76.73,397,76.73,397H69.91l57-98.26Z"/><path class="cls-29" d="M114.13,263a8.39,8.39,0,0,0,5.75,3.39,17,17,0,0,0,6.8-.57c1.81-.46,3.72-1.16,4.76-2.71s1-3.26,1-5l0-11.43c0-1.67-.09-3.57-1.36-4.66-2.24-1.92-6.12.26-8.52-1.46-1-.75-1.56-2.1-2.68-2.73-1.57-.88-3.65.13-4.57,1.68a10.57,10.57,0,0,0-1,5.24l-.3,18.46"/><path class="cls-30" d="M116.75,198.82v16.36a15.25,15.25,0,0,0-4.68,11.69c.26,7.53,0,38.43,0,38.43q11.18,7.5,22.34,0l-1-39.73s-.26-6.75-4.94-9.87V198.82Z"/><path class="cls-18" d="M116.62,199.25c3.62,2.66,8.57,2.31,12.31.13a.34.34,0,0,0-.35-.59c-3.94,2.31-7.72,1.93-11.74.09a.22.22,0,0,0-.22.37Z"/><path class="cls-18" d="M111.83,266.16a18.72,18.72,0,0,0,22.74-.6c.36-.28,0-.9-.36-.62-6.82,5.15-14.91,5.23-22.1.75-.31-.19-.56.27-.28.47Z"/><g class="cls-24"><path class="cls-25" d="M112.05,266c-.26,2.81,1.74,5.51,4.33,6.65a12.07,12.07,0,0,0,8.3.15,19.3,19.3,0,0,0,10.14-7.36c-3.68,1.46-7.42,2.93-11.35,3.37s-8.15-.26-11.23-2.75"/></g><path class="cls-18" d="M255.41,267.63c1.78-2.85,3.44-5.79,5-8.74a.29.29,0,0,0-.51-.29c-1.7,2.89-3.38,5.83-4.9,8.81a.21.21,0,0,0,.36.22Z"/><path class="cls-31" d="M312.38,396.79c0,.73,2.93,11,2.93,11l15.41-2.2-4-12.81Z"/><path class="cls-31" d="M270.58,419.14c0,.73,2.94,11,2.94,11l15.4-2.2-4-12.81Z"/><path class="cls-32" d="M267.39,307.69s-3.26-12.55,12.54-13.9c12-1,39.48,5.45,39.48,5.45l-7.65,27.4Z"/><polygon class="cls-32" points="276.54 327.29 307.58 406.45 334.21 398.79 314.82 345.83 276.54 327.29"/><path class="cls-33" d="M314.82,303.57S254.47,291.81,241,307c-7.18,8.14,25.37,115.86,25.37,115.86L293.89,419l-18.26-81.76s75.28,17,77.44-22.37"/><path class="cls-34" d="M333,170.33q-.15,6-.32,12.08a5.47,5.47,0,0,0,.22,2.06,1.82,1.82,0,0,0,1.52,1.24"/><path class="cls-18" d="M334,160.62a13.45,13.45,0,0,1-7.72-1.6c-1.44-.76-1.89-2.79-.82-5.88a3.73,3.73,0,0,1,3.19-2.06c1.91.16,2.4.42,3.27-.3a3.82,3.82,0,0,1-2.09-5.19,4.85,4.85,0,0,1,5.41-2.34c2.74.67,4.53,3.28,7,4.7,2.91,1.7,6.52,1.57,9.87,1.13s6.75-1.15,10.05-.44c5,1.08,8.91,5.38,10.6,10.23s1.46,10.16.59,15.21c-.52,3-1.26,6.11-.78,9.15.19,1.22.58,2.41.72,3.65a4.86,4.86,0,0,1-.76,3.54c-.76,1-9.18,1.1-10.21.41"/><path class="cls-34" d="M335.06,157.48a2.16,2.16,0,0,0-2.16,2.06c-.35,7.74-.22,33,6.4,37,3.15,1.89,11.42.32,11.42.32l2.08,18.74,20.56-1.43-3.18-23.44s-7.77,2.26-7.47-13.25c0,0,8.42-2.26,5-10.2-2.32-5.4-12.91-4.25-11.69,4.84l-3.42.9L349,159.16a2.58,2.58,0,0,0-2.57-2.4Z"/><path class="cls-35" d="M352.63,206s-15.78.91-19.9,14.25l-6.23,43.39-9,42L349.11,315l29.62,2s9-51.27,13.54-72.66c3.89-18.39.15-26.3-1.43-28.65-.42-.62-.77-1.28-1.13-1.94C388,210.42,373.89,202.27,352.63,206Z"/><path class="cls-35" d="M254.69,267.69s43.19,23.4,48.75,20,26.88-28.93,26.88-28.93l4.78-42.6-38.92,52.66-36-10.42Z"/><path class="cls-18" d="M336.9,171.77a4.85,4.85,0,0,0,0,2,.35.35,0,0,0,.68,0,4.85,4.85,0,0,0-.05-2,.31.31,0,0,0-.6,0Z"/><path class="cls-18" d="M336.72,167.66a2.68,2.68,0,0,1,1.13-.33,4,4,0,0,1,1.07.34.31.31,0,0,0,.35-.45,2,2,0,0,0-2.93.06c-.18.25.16.47.38.38Z"/><path class="cls-18" d="M326.88,158.26a66.67,66.67,0,0,0,18.6,1.88c10.16-.45,10.31,1.13,10.31,1.13l-5.5-6.4Z"/><path class="cls-18" d="M367.81,147.91a23.42,23.42,0,0,1,.64-3.6.22.22,0,0,0-.41-.17,6.14,6.14,0,0,0-.64,3.77.21.21,0,0,0,.41,0Z"/><path class="cls-18" d="M368.29,148.14a24.66,24.66,0,0,0,2-1.56c.21-.21-.07-.59-.33-.42a24,24,0,0,0-2,1.62c-.25.21.1.56.35.36Z"/><g class="cls-36"><path class="cls-37" d="M349.39,179.17a2.87,2.87,0,0,1-2.48.92,5,5,0,0,1-2.47-1.16,2.6,2.6,0,0,1-1.22-2.24,2.06,2.06,0,0,1,1.91-1.55,6,6,0,0,1,2.59.52S350.78,177.59,349.39,179.17Z"/></g><g class="cls-36"><path class="cls-37" d="M362.05,167.19c-1.53.16-2.18.21-3,1.53a3.75,3.75,0,0,0-.6,2.25,3.36,3.36,0,0,0,1.16,2.16,3.82,3.82,0,0,0,4.42.37,3.55,3.55,0,0,0,1.41-4.14,3.33,3.33,0,0,0-3.84-2"/></g><path class="cls-18" d="M362.62,166.37a3.86,3.86,0,0,0-2.9,4.22c0,.27.45.49.6.16a2.71,2.71,0,0,1,1.57-1.54c1.07-.37,2.36.08,2.37,1.38,0,2-2,2.5-3.6,2.24-.3-.05-.53.35-.22.51,2.1,1.13,5-1,4.35-3.36-.7-2.66-4.16-1.33-5,.45l.6.16a3.46,3.46,0,0,1,2.38-3.79.22.22,0,0,0-.12-.43Z"/><path class="cls-18" d="M332.85,170.57a116,116,0,0,0-.43,12.08c.06,1.61.19,3,1.94,3.47a.18.18,0,0,0,.09-.34c-2.35-.77-1.43-6.76-1.39-8.57.05-2.21.08-4.43.06-6.64a.14.14,0,1,0-.27,0Z"/><path class="cls-18" d="M338.35,188.38a4.56,4.56,0,0,0,3.47-1.49,6,6,0,0,0,1.78-3.76c0-.43-.61-.41-.66,0a5.78,5.78,0,0,1-1.65,3.46,10.86,10.86,0,0,1-3,1.64c-.05,0-.05.14,0,.15Z"/><path class="cls-18" d="M342.21,183.69a2.93,2.93,0,0,1,1.17-.22c.34,0,.67.17,1,0a.24.24,0,0,0,.14-.34c-.5-.69-1.88-.26-2.5,0-.27.13-.08.6.2.49Z"/><path class="cls-38" d="M312.83,353.69A64.23,64.23,0,0,0,347,359.31a62.63,62.63,0,0,0,28.53-11Z"/><path class="cls-39" d="M372.53,241.17S356.34,243,352.8,261c-2.73,13.81-2,46.82-9.43,67.29-3,8.31-13.59,12.71-22.43,13.25l-30.14.25S281.52,354.26,333,353.9c0,0,26.6.6,40.71-4.83,11.56-4.45,19.1-13.06,23.77-22.11s8.94-26.09,11.12-38.93,4.63-37.95,3.32-41.6-4.38-5.42-10.07-5.26S372.53,241.17,372.53,241.17Z"/><polygon class="cls-38" points="339.43 359.74 339.43 414.93 346.48 414.26 347.22 358.72 339.43 359.74"/><path class="cls-38" d="M342.68,407.79S301.56,408,310,426.91c8,18.12,47.91,17.46,61.8,9.42C383.41,429.58,387,410.63,342.68,407.79Z"/><path class="cls-18" d="M339.32,404c-.81,7.75-2.57,16.61-12.12,16.68a.23.23,0,0,0-.06.45c9.52,2.31,12.41-10.45,12.44-17.13,0-.17-.24-.16-.26,0Z"/><path class="cls-18" d="M346.67,401.56c-.26,5.2.11,11,3.34,15.36,2.74,3.69,7.23,5.25,11.55,6.28a.33.33,0,0,0,.17-.64c-4.46-1.51-9.09-2.78-11.74-7.09s-2.67-9.12-3.21-13.91a.06.06,0,0,0-.11,0Z"/><g class="cls-40"><path class="cls-18" d="M293.09,348.3c13.89,3.77,26.89,2,40.64-2.24,6.92-2.14,13.85-5.4,18.2-11.19,4.92-6.53,5.77-15.16,6.44-23.3q2.1-25.21,4.18-50.42c.32-3.91.67-7.92,2.3-11.49s4.81-6.7,8.72-7.13l10.19-1.37s-28.8-4.88-31.19,21.09-4.45,50-6.82,58-12.71,20.3-21.56,20.86c-15,.95-33.39.62-33.39.62S288.29,347,293.09,348.3Z"/></g><path class="cls-18" d="M292.59,348.44c15.51,1,34,1.16,48.44-5.34,11.33-5.08,16.05-16.58,17.73-28.3,1.06-7.4.85-15,1.37-22.47q1-14.26,2.95-28.45c.78-5.53.85-12.91,4.78-17.32,3.76-4.22,10.77-4.73,16-5,7.1-.38,27-3.77,28.11,7,.05.47.79.48.74,0-.88-9.31-12.68-8.22-19.29-8.09-7.75.16-18.19-.73-24.65,4.25-2.62,2-3.84,5-4.62,8.17-2.1,8.42-2.75,17.49-3.62,26.1q-1.39,13.81-1.79,27.69c-.27,8.86-1.58,18-6.11,25.75-5.31,9.12-15.38,12.47-25.27,14.12a161.55,161.55,0,0,1-34.74,1.56c-.22,0-.22.32,0,.34Z"/><path class="cls-18" d="M291.27,347.23c11.59,7.46,26.51,7.29,39.78,6.92A227.28,227.28,0,0,0,379.44,348c.41-.1.24-.72-.17-.63a256.24,256.24,0,0,1-46.31,6.1c-14.13.49-28.79.52-41.48-6.58-.24-.14-.44.22-.21.37Z"/><path class="cls-41" d="M288.92,427.94s3.51,10.9,3.42,11.63-43.79-1.73-41.1-3.93,5.65-4.12,22.84-3.84l-.56-1.66Z"/><path class="cls-41" d="M330.72,405.59s3.5,10.9,3.41,11.63-43.79-1.73-41.1-3.93,5.65-4.11,22.84-3.84l-.56-1.66Z"/><path class="cls-18" d="M250.92,437c13.76,2.12,27.86,2.67,41.74,3.47.53,0,.53-.81,0-.83-14-.48-27.77-2.13-41.68-3.07-.24,0-.3.39-.06.43Z"/><path class="cls-18" d="M270.12,431.71a4,4,0,0,0,.13,3.61.25.25,0,0,0,.46-.2,14,14,0,0,1-.3-1.72c0-.54.08-1.06.09-1.59a.2.2,0,0,0-.38-.1Z"/><path class="cls-18" d="M272,431.58a4.63,4.63,0,0,0,.64,3.67c.18.2.44,0,.4-.23-.08-.54-.37-1-.49-1.59a10.12,10.12,0,0,1-.27-1.82c0-.15-.25-.2-.28,0Z"/><path class="cls-18" d="M273.76,431.52a3.76,3.76,0,0,0,1.69,3.14.29.29,0,0,0,.4-.4c-.27-.48-.73-.85-1-1.33s-.43-1-.7-1.51a.2.2,0,0,0-.37.1Z"/><path class="cls-18" d="M274,431.6a14.57,14.57,0,0,0,2.45.41c.32,0,.4-.5.08-.56a14.79,14.79,0,0,0-2.49-.13c-.16,0-.2.25,0,.28Z"/><path class="cls-18" d="M270.69,432a10,10,0,0,0-2.22-3.55c-.65-.64-1.88-1.44-2.65-.5-1.73,2.11,3,4.17,4.48,4.17a.33.33,0,0,0,.08-.64,12.23,12.23,0,0,1-2.45-.9,4.84,4.84,0,0,1-1.1-.8c-.3-.31-1.08-1.51.1-1.44.7,0,1.57,1.21,2,1.73a11.14,11.14,0,0,1,1.37,2.1c.11.22.51.06.41-.17Z"/><path class="cls-18" d="M270.89,431.74a5.5,5.5,0,0,0,.77-3.82c-.09-.69-.29-2.05-1.24-2s-1.12,1.6-1.18,2.32a4.9,4.9,0,0,0,.95,3.46.3.3,0,0,0,.5-.29,10.75,10.75,0,0,1-.65-1.91c-.07-.42-.13-2.77.44-2.57s.46,1.72.45,2.17a13.38,13.38,0,0,1-.47,2.43.24.24,0,0,0,.43.19Z"/><path class="cls-18" d="M260.57,432.27a8.06,8.06,0,0,1,1.66,2.65c.31.83.31,1.69.54,2.53a.21.21,0,0,0,.4,0c.48-1.94-1-4.22-2.39-5.38-.14-.12-.34.06-.21.2Z"/><path class="cls-18" d="M284,439.28c1.17-3.25,3.25-5.46,6.84-5.81.38,0,.4-.62,0-.6-3.46.14-6.93,2.74-7.25,6.36,0,.25.34.26.41,0Z"/><path class="cls-18" d="M285.34,428.68a22,22,0,0,0,.91,2.93,10.65,10.65,0,0,0,1,2.53c.1.14.38.11.36-.1a11.64,11.64,0,0,0-.87-2.78,23.53,23.53,0,0,0-1.08-2.71c-.09-.18-.35-.05-.31.13Z"/><path class="cls-18" d="M273.37,430.37c5.3-.11,10.74-1.39,16-2.15.36-.06.21-.6-.15-.55-5.21.77-10.76,1.11-15.85,2.52a.09.09,0,0,0,0,.18Z"/><path class="cls-18" d="M293,414.16a295.76,295.76,0,0,0,40.44,3.43c.48,0,.48-.74,0-.76-13.53-.54-26.92-1.82-40.4-3-.17,0-.21.27,0,.3Z"/><path class="cls-18" d="M313.18,409.35c0,.46.11.92.18,1.37a3.55,3.55,0,0,0,.31,1.33c.09.16.39.15.42-.05a3.68,3.68,0,0,0-.15-1.23c-.1-.49-.22-1-.35-1.47-.06-.22-.44-.19-.41.05Z"/><path class="cls-18" d="M314.81,409.37a10,10,0,0,0,.3,1.42,2.5,2.5,0,0,0,.47,1.23.25.25,0,0,0,.41-.11,2.57,2.57,0,0,0-.25-1.29,9.73,9.73,0,0,0-.49-1.37c-.1-.2-.47-.11-.44.12Z"/><path class="cls-18" d="M315.62,409.18c.66.48,1.24,1,1.92,1.49.36.24.69-.33.34-.58-.67-.46-1.4-.79-2.08-1.22-.2-.12-.36.18-.18.31Z"/><path class="cls-18" d="M311.55,409.49a5.35,5.35,0,0,0-.13,3.09.25.25,0,0,0,.49-.07,12.88,12.88,0,0,0-.07-1.38,8.7,8.7,0,0,1,.13-1.53c0-.27-.35-.39-.42-.11Z"/><path class="cls-18" d="M312.64,408.94a7.06,7.06,0,0,0-2.24-2.58c-.62-.37-1.51-.28-1.61.57s.8,1.5,1.41,1.91a5.62,5.62,0,0,0,3.19.89.34.34,0,0,0,0-.68,4.94,4.94,0,0,1-3.46-1.37c-.32-.33-.45-.74.21-.63.26.05.57.44.77.63a7.48,7.48,0,0,1,1.29,1.52c.17.27.61,0,.44-.26Z"/><path class="cls-18" d="M313.64,409.49a5.36,5.36,0,0,0,.56-2.84c-.06-.55-.16-1.36-.83-1.48s-1.14.77-1.35,1.34a7,7,0,0,0-.43,3.13c0,.45.75.47.72,0a7.72,7.72,0,0,1,.09-1.86c.07-.37.24-1.41.53-1.61.69-.47.66.91.64,1.32a5.18,5.18,0,0,1-.37,1.82c-.1.25.33.43.44.18Z"/><path class="cls-18" d="M315,408.05c5.29.06,10.85-1.08,16.09-1.79.43-.06.33-.82-.1-.77-5.26.62-10.92.89-16,2.26a.15.15,0,0,0,0,.3Z"/><path class="cls-18" d="M332,410.09c-3.36-.52-6.35,3.42-5.87,6.54.06.44.69.29.73-.1a6.41,6.41,0,0,1,1.47-4.13,8.43,8.43,0,0,1,3.67-1.95c.15-.06.2-.33,0-.36Z"/><path class="cls-18" d="M326.4,406.24a13.36,13.36,0,0,0,1.13,6.88A.25.25,0,0,0,328,413c-.13-1.07-.42-2.11-.62-3.18s-.29-2.4-.6-3.57c0-.17-.34-.19-.37,0Z"/><path class="cls-18" d="M302,409.84c2.21,1.16,2.35,4,2.41,6.13a.4.4,0,0,0,.8,0c-.07-2.59-.38-5.33-3-6.5-.25-.12-.47.24-.22.37Z"/><path class="cls-42" d="M272.74,428a125.58,125.58,0,0,0,15.17-2.38c.37-.07.22-.67-.16-.58-5,1.18-10,1.84-15.06,2.6-.2,0-.16.37.05.36Z"/><path class="cls-42" d="M272.08,425.64c5.1-.28,10.11-1.69,15.15-2.42.41-.06.24-.73-.18-.64-5,1.1-10.11,1.41-15,2.71-.19,0-.16.36,0,.35Z"/><path class="cls-42" d="M271.44,423.21a80.24,80.24,0,0,0,15.06-2.56.26.26,0,0,0-.14-.5c-4.94,1.2-10,1.85-15,2.66a.2.2,0,0,0,.05.4Z"/><path class="cls-42" d="M314.7,406.49A113.8,113.8,0,0,0,329.26,403a.3.3,0,0,0-.16-.57c-4.81,1.33-9.68,2.4-14.5,3.71-.23.06-.13.38.1.35Z"/><path class="cls-18" d="M265.81,423.39c9.4-.94,18.78-2.26,28.12-3.72.43-.07.25-.71-.17-.64-9.3,1.45-18.62,2.64-27.95,3.78-.37.05-.38.62,0,.58Z"/><path class="cls-18" d="M272.19,421.9c-3.11-15.09-6.61-30.1-9.89-45.15-1.61-7.37-3.26-14.73-4.89-22.09-.85-3.84-1.72-7.68-2.58-11.51-.81-3.64-2.27-7.57-2.51-11.28-.31-4.81.9-7.16,6.1-7.5a31.46,31.46,0,0,1,5.55.56c4,.47,7.92,1.09,11.85,1.77,7.07,1.22,14.08,2.67,21.13,4,13.95,2.57,28.21,4.66,42.4,3,.52-.06.54-.87,0-.83-17.4,1.47-34.3-1.56-51.32-4.84-7.38-1.42-14.76-2.84-22.22-3.8-4.29-.55-11.81-2.88-14.15,2.28s1.41,13.77,2.55,18.88q2.79,12.47,5.62,24.94c3.9,17.25,7.66,34.56,11.81,51.75.09.36.62.21.55-.15Z"/><path class="cls-18" d="M307.9,406.91a200.14,200.14,0,0,1,26.52-9.15.34.34,0,0,0-.18-.66,152.9,152.9,0,0,0-26.58,9.24c-.32.15-.09.71.24.57Z"/><path class="cls-18" d="M328.56,398.93a320.83,320.83,0,0,1-20.16-45.52c-.21-.62-1.21-.36-1,.27a237.42,237.42,0,0,0,20.65,45.55.3.3,0,0,0,.51-.3Z"/><path class="cls-18" d="M326.61,263.74C334,255,341,246,348.15,237.08c.22-.28-.17-.67-.39-.39-7.12,8.94-14.31,17.84-21.38,26.83-.12.15.1.38.23.22Z"/><path class="cls-43" d="M350.49,220.14c.54,0,1-.27,1.57-.26a2.77,2.77,0,0,1,1.94.82,2.59,2.59,0,1,1-4.06,3.19,2.85,2.85,0,0,1,.78-3.67c.28-.24-.08-.7-.39-.51a3.33,3.33,0,0,0-.93,4.65,3.3,3.3,0,1,0,5.33-3.9,3.31,3.31,0,0,0-2.19-1.21c-.71-.09-1.8,0-2.18.66a.15.15,0,0,0,.13.23Z"/><path class="cls-43" d="M328.32,238.47c.53,0,1-.28,1.57-.27a2.78,2.78,0,0,1,1.94.83,2.59,2.59,0,1,1-4.06,3.19,2.85,2.85,0,0,1,.78-3.68c.28-.23-.09-.7-.4-.5a3.32,3.32,0,0,0-.92,4.64,3.3,3.3,0,1,0,5.33-3.9,3.37,3.37,0,0,0-2.2-1.2c-.7-.09-1.79,0-2.17.66a.15.15,0,0,0,.13.23Z"/><path class="cls-43" d="M377.3,215.89c.53,0,1-.27,1.57-.26a2.81,2.81,0,0,1,1.94.82,2.59,2.59,0,1,1-4.06,3.2,2.85,2.85,0,0,1,.78-3.68c.28-.24-.09-.7-.4-.51a3.33,3.33,0,0,0-.92,4.65,3.3,3.3,0,1,0,5.33-3.9,3.37,3.37,0,0,0-2.2-1.2c-.7-.1-1.79,0-2.17.66a.14.14,0,0,0,.13.22Z"/><path class="cls-43" d="M361.78,230.64c1.67-1.86,3.21-3.89,4.72-5.89.23-.3-.28-.7-.53-.4-1.57,1.93-3.18,3.91-4.59,6-.16.24.2.52.4.31Z"/><path class="cls-43" d="M371.26,230.49a1.5,1.5,0,0,0-.65-.17c-.23,0-.45.3-.29.51a1.41,1.41,0,0,0,.48.43c.52.28,1-.54.46-.77Z"/><path class="cls-43" d="M360,219.43l.07.19a.3.3,0,0,0,.58,0l.07-.19c.23-.6-.95-.6-.72,0Z"/><path class="cls-43" d="M380,228.18l1.28,1.43a9.31,9.31,0,0,0,1.23,1.28c.21.15.49-.15.35-.36a8.19,8.19,0,0,0-1.21-1.29l-1.35-1.36c-.19-.19-.48.1-.3.3Z"/><path class="cls-43" d="M386.56,225.09l0,.13a.34.34,0,0,0,.65,0l0-.13c.16-.6-.88-.61-.72,0Z"/><path class="cls-43" d="M369.14,211.13l1.14,2.52a13.79,13.79,0,0,0,1.23,2.46.24.24,0,0,0,.44-.19,11.92,11.92,0,0,0-1.08-2.39c-.43-.89-.88-1.76-1.32-2.64-.14-.27-.53,0-.41.24Z"/><path class="cls-43" d="M353.35,214.68c.63-.53,1.26-1.05,1.9-1.56a17.86,17.86,0,0,0,1.88-1.58c.2-.22-.06-.59-.32-.42a16.57,16.57,0,0,0-1.83,1.52c-.66.57-1.31,1.13-2,1.69-.24.2.11.55.35.35Z"/><path class="cls-43" d="M339,223.24c1.5,1.73,2.86,3.72,4.52,5.3.27.26.77-.08.54-.41-1.35-1.89-3.14-3.53-4.67-5.28-.23-.27-.62.12-.39.39Z"/><path class="cls-43" d="M342.64,217.3a.34.34,0,0,0,0-.68.34.34,0,0,0,0,.68Z"/><path class="cls-43" d="M336.73,231.36v.13c0,.49.78.49.76,0v-.13a.37.37,0,0,0-.74,0Z"/><path class="cls-43" d="M362,208.29a.32.32,0,0,0,0-.64.32.32,0,0,0,0,.64Z"/><path class="cls-43" d="M375.81,210.67l.4,0a.31.31,0,0,0,0-.6l-.4-.06a.36.36,0,1,0,0,.71Z"/><path class="cls-43" d="M387.86,213.14c-.5,1.46-1.19,2.92-1.57,4.41-.09.35.44.61.6.25.63-1.43,1-3,1.51-4.51.11-.34-.42-.49-.54-.15Z"/><path class="cls-43" d="M387.66,237.22a18.23,18.23,0,0,0,4-3.76c.22-.32-.26-.66-.53-.41-1.3,1.25-2.41,2.65-3.82,3.79-.27.22.11.59.37.38Z"/><path class="cls-43" d="M371.81,235.2a3.28,3.28,0,0,0-2.79,4,3.22,3.22,0,0,0,4.21,2.06A3.35,3.35,0,0,0,375,237a3.22,3.22,0,0,0-4.22-1.54c-.29.12-.08.63.22.52a2.87,2.87,0,0,1,3.44,1,2.62,2.62,0,0,1-1.32,3.82,2.84,2.84,0,0,1-3.44-1.77,2.78,2.78,0,0,1,2.29-3.4c.27,0,.16-.46-.11-.42Z"/><path class="cls-43" d="M356.57,236c1.22,1.54,2.42,3.12,3.66,4.65.27.33.73-.14.47-.47-1.25-1.52-2.55-3-3.82-4.49-.18-.21-.47.1-.31.31Z"/><path class="cls-43" d="M350,243.69a.52.52,0,0,0,.23-.3.39.39,0,0,0-.27-.48l-.05,0c-.34-.11-.67.4-.37.64h0l.14-.5-.05,0a.37.37,0,0,0,.37.63Z"/><path class="cls-43" d="M347.27,247.41a3.49,3.49,0,0,0-3.1,3.91,3.48,3.48,0,1,0,3.31-4,.34.34,0,0,0,0,.67,3,3,0,0,1,2.86,2.65,2.77,2.77,0,0,1-5.53.31,3,3,0,0,1,2.59-3.05c.32,0,.18-.51-.13-.47Z"/><path class="cls-43" d="M334.75,257.12A28.67,28.67,0,0,0,336.4,260a8.07,8.07,0,0,0,1.78,2.19c.29.21.58-.18.45-.45a20.43,20.43,0,0,0-1.76-2.42,25.66,25.66,0,0,1-1.57-2.55c-.19-.37-.74-.05-.55.32Z"/><path class="cls-43" d="M338.41,269.24a16.53,16.53,0,0,0,6.27-2.61c.29-.23-.08-.61-.37-.48a33.61,33.61,0,0,1-6,2.59c-.32.08-.18.58.14.5Z"/><path class="cls-43" d="M341.39,257.58a.35.35,0,0,0,0-.69.35.35,0,0,0,0,.69Z"/><path class="cls-43" d="M349.69,267a.39.39,0,0,0,0-.78.39.39,0,0,0,0,.78Z"/><path class="cls-43" d="M329.54,268.67l.44.39a.28.28,0,0,0,.4-.4l-.39-.44c-.27-.31-.76.18-.45.45Z"/><path class="cls-43" d="M344.75,274.52a2.86,2.86,0,0,0-3.56,2.46,3.34,3.34,0,0,0,3.52,3.59,3.69,3.69,0,0,0,3.52-3.27,3.15,3.15,0,0,0-3.38-3.39c-.45,0-.46.73,0,.71,3.29-.17,3.43,4.41.47,5.13a2.78,2.78,0,0,1-3.41-2,2.33,2.33,0,0,1,2.72-2.82c.28.05.4-.36.12-.43Z"/><path class="cls-43" d="M334.77,279a26.34,26.34,0,0,0,.37,5.19c.08.31.49.21.52-.07a26,26,0,0,0-.34-5.12c0-.35-.57-.36-.55,0Z"/><path class="cls-43" d="M328.94,288c1.45,1.44,2.85,3,4.4,4.31a.37.37,0,0,0,.52-.52c-1.38-1.51-2.95-2.87-4.44-4.28a.34.34,0,0,0-.48.49Z"/><path class="cls-43" d="M346,294.25a.48.48,0,0,0,0-1,.48.48,0,0,0,0,1Z"/><path class="cls-43" d="M331.32,301.41a.85.85,0,0,0-.28.65.37.37,0,0,0,.37.36.81.81,0,0,0,.64-.28c.5-.44-.29-1.23-.73-.73Z"/><path class="cls-43" d="M326,249.22c2.29.17,4.63.49,6.92.46.28,0,.36-.46.07-.5-2.3-.32-4.68-.29-7-.39-.28,0-.28.41,0,.43Z"/><path class="cls-43" d="M316.65,249a31.18,31.18,0,0,0,.08,8.19c.06.33.62.26.6-.09a56.14,56.14,0,0,1-.23-8.1c0-.28-.42-.28-.45,0Z"/><path class="cls-43" d="M322.33,257.16a.36.36,0,0,0,0-.72.36.36,0,0,0,0,.72Z"/><path class="cls-43" d="M320.69,242.51a4.53,4.53,0,0,0,0,.52c0,.27.51.27.56,0a4.53,4.53,0,0,0,0-.52.31.31,0,0,0-.62,0Z"/><path class="cls-43" d="M330.28,231.46a.29.29,0,0,0,0-.58.29.29,0,0,0,0,.58Z"/><path class="cls-43" d="M344.27,237.38a.32.32,0,0,0,0-.64.32.32,0,0,0,0,.64Z"/><path class="cls-43" d="M309.21,266.34c1.94.93,3.82,2.05,5.81,2.86.38.15.62-.45.28-.65-1.86-1-3.89-1.79-5.8-2.7-.33-.16-.62.33-.29.49Z"/><path class="cls-43" d="M310,263a.34.34,0,0,0,0-.68.34.34,0,0,0,0,.68Z"/><path class="cls-43" d="M309.07,275.64a.43.43,0,0,0,0-.85.43.43,0,0,0,0,.85Z"/><path class="cls-43" d="M299.41,276.45a2.4,2.4,0,0,1,3,.74,2.37,2.37,0,0,1-.53,3.05,2.24,2.24,0,0,1-3.05-.3,2.48,2.48,0,0,1,.16-3.12.32.32,0,0,0-.45-.45,2.89,2.89,0,0,0-.17,4,3.08,3.08,0,0,0,3.95.45,2.88,2.88,0,0,0-3.21-4.77c-.28.15,0,.57.25.42Z"/><path class="cls-43" d="M302.06,269.28l0,.13a.35.35,0,0,0,.67,0l0-.13c.19-.63-.93-.63-.75,0Z"/><path class="cls-43" d="M292.43,273.37a47.93,47.93,0,0,0-2,5.76c-.08.33.4.57.57.24a51,51,0,0,0,2.09-5.82c.14-.41-.51-.59-.65-.18Z"/><path class="cls-43" d="M286.68,275.36a.44.44,0,0,0,0-.88.44.44,0,0,0,0,.88Z"/><path class="cls-43" d="M277.8,269.63a2.89,2.89,0,0,0,1.55,3.21,2.65,2.65,0,0,0,3.35-1.16,2.61,2.61,0,0,0-.69-3.16,2.32,2.32,0,0,0-3.24.48c-.19.28.23.57.46.35a2,2,0,0,1,2.4-.39,1.85,1.85,0,0,1,.37,2.65c-1.47,1.82-4.07.14-3.81-1.93,0-.22-.36-.27-.39-.05Z"/><path class="cls-43" d="M267.73,265.41a28.24,28.24,0,0,0,1.46,5.24.29.29,0,0,0,.53-.15,27.77,27.77,0,0,0-1.49-5.23.26.26,0,0,0-.5.14Z"/><path class="cls-43" d="M261.34,268.22a.37.37,0,0,0,0-.74.37.37,0,0,0,0,.74Z"/><path class="cls-44" d="M258.93,261.52s-8.68-4.57-9.8-4.4-11.17,5.27-9.94,5.61,7.26-2.27,7.26-2.27-7.33,4.31-5.56,4.46,5.81-2.41,5.81-2.41-2.18,3.46-1.42,3.81,2.21,2.07,2.15,1.06a4.4,4.4,0,0,0-.73-1.94l1.19-1.39,6.8,3.64Z"/><path class="cls-45" d="M245.38,265.87a14.9,14.9,0,0,1,1-2.26,6.54,6.54,0,0,1,.59-.89,1.2,1.2,0,0,1,.36-.35.46.46,0,0,1,.69-.18,2.76,2.76,0,0,1,.85.29.2.2,0,0,0,.2-.35c-2.15-1.51-3.7,2-4,3.65a.17.17,0,0,0,.32.09Z"/><path class="cls-45" d="M240.77,264.49c1.47-1,2.89-2.12,4.34-3.17s1.56-1.27,3.86-.95c.78.11,1.42.37,2.22.41a.16.16,0,1,0,0-.31c-2-.09-3.47-1.22-5.32,0a63.67,63.67,0,0,0-5.22,3.89c-.08.07,0,.22.12.16Z"/><path class="cls-46" d="M330.58,115.71c0,.55-.56,20.41-.56,20.41l25.86-4.68.3,4.37L359.1,131l5.16-.52,1.67-18.8Z"/><text class="cls-47" transform="translate(341.45 129.33) rotate(-9.65)">JS</text><path class="cls-48" d="M82.9,136.94c0,.56,1.24,20.39,1.24,20.39l25.34-7,.69,4.33,2.48-5.08,5.1-1V129.78Z"/><text class="cls-27" transform="translate(91.44 149.77) rotate(-12.91)">CSS</text><path class="cls-12" d="M183,242.29s15.9,4.72,31.32,1.52,27-5.95,27-5.95L213,233.47Z"/><polygon class="cls-49" points="283.69 212.15 158.67 238.24 139.07 145.71 269.29 124.36 283.69 212.15"/><polygon class="cls-50" points="281.12 204.64 159.02 229.62 141.27 147.74 268.38 126.9 281.12 204.64"/><rect class="cls-23" x="156.32" y="163.59" width="13.66" height="1.9" transform="translate(-26.75 31.76) rotate(-10.28)"/><rect class="cls-23" x="229.9" y="155.9" width="13.66" height="1.9" transform="translate(-24.19 44.77) rotate(-10.28)"/><rect class="cls-51" x="176.82" y="157.43" width="42.83" height="2.05" transform="translate(-25.1 37.92) rotate(-10.28)"/><rect class="cls-23" x="195.33" y="160.59" width="31.74" height="2.05" transform="translate(-25.45 40.29) rotate(-10.28)"/><rect class="cls-51" x="205.5" y="162.06" width="58.71" height="2.15" transform="translate(-25.34 44.53) rotate(-10.28)"/><rect class="cls-23" x="163" y="187.64" width="13.66" height="1.9" transform="translate(-30.93 33.34) rotate(-10.28)"/><rect class="cls-23" x="245.97" y="201.3" width="13.66" height="1.9" transform="translate(-32.04 48.37) rotate(-10.28)"/><rect class="cls-23" x="236.57" y="179.94" width="13.66" height="1.9" transform="translate(-28.38 46.35) rotate(-10.28)"/><rect class="cls-51" x="183.5" y="181.47" width="42.83" height="2.05" transform="translate(-29.28 39.5) rotate(-10.28)"/><rect class="cls-23" x="202" y="184.64" width="31.74" height="2.05" transform="translate(-29.64 41.87) rotate(-10.28)"/><rect class="cls-51" x="212.18" y="186.1" width="58.71" height="2.15" transform="matrix(0.98, -0.18, 0.18, 0.98, -29.53, 46.11)"/><rect class="cls-23" x="152.49" y="152.94" width="58.71" height="2.15" transform="translate(-24.57 34.93) rotate(-10.28)"/><rect class="cls-51" x="166.74" y="204.4" width="58.71" height="2.15" transform="translate(-33.52 38.3) rotate(-10.28)"/><rect class="cls-23" x="168.12" y="212.48" width="47.35" height="2.15" transform="translate(-35.03 37.66) rotate(-10.28)"/><rect class="cls-51" x="217.87" y="205.37" width="25.94" height="2.15" transform="translate(-33.14 44.51) rotate(-10.28)"/><path class="cls-18" d="M141,147.82q8.88,40.94,17.75,81.88a.31.31,0,0,0,.37.21L266.17,208l15-3.08a.3.3,0,0,0,.21-.37Q275,165.7,268.67,126.82c0-.17-.23-.23-.37-.21L157.16,144.83l-16,2.62c-.38.06-.22.64.16.58l87.12-14.28c12.89-2.12,25.76-4.56,38.7-6.35.24,0,.9-.28,1.13-.18s-.56-.47-.16.09c.79,1.11.69,4.2.91,5.52l3.9,23.79q2.37,14.48,4.75,28.95c.94,5.79,2.93,12.27,3,18.14,0,1.51.69.25-.28.78-1.2.65-3.32.67-4.65.95l-19.36,4c-32,6.55-64,13.5-96.11,19.66-.24,0-.89.31-1.12.23-.53-.19.54.47.09-.06-.81-1-.87-4-1.13-5.22q-2.49-11.46-5-22.92l-10.89-50.23-.69-3.2C141.48,147.28,140.9,147.44,141,147.82Z"/><path class="cls-14" d="M210.64,227.5s3.22,15.81,3.71,16.31,29-6.43,29-6.43l-3.52-16.09Z"/><path class="cls-18" d="M243.2,221.83c1.42,5.87,8.34,5.34,12.62,3.15,4.72-2.42,8.72-5.39,13.92-6.92a42.05,42.05,0,0,1,19-.8c.35.06.5-.46.15-.54A39.59,39.59,0,0,0,268.05,218c-6.35,2.16-20.66,14.59-24.55,3.76a.16.16,0,0,0-.3.08Z"/><rect class="cls-23" x="248.28" y="113.34" width="71.9" height="46.29" transform="translate(-19.79 52.92) rotate(-10.28)"/><rect class="cls-52" x="254.31" y="134.57" width="13.66" height="1.9" transform="matrix(0.98, -0.18, 0.18, 0.98, -19.99, 48.78)"/><rect class="cls-52" x="258.19" y="149.99" width="13.66" height="1.9" transform="translate(-22.68 49.72) rotate(-10.28)"/><rect class="cls-52" x="274.16" y="144.76" width="37.26" height="2" transform="translate(-21.31 54.6) rotate(-10.28)"/><rect class="cls-52" x="252.23" y="124.34" width="42.83" height="2.05" transform="translate(-17.98 50.85) rotate(-10.28)"/><rect class="cls-52" x="256.19" y="139.55" width="42.83" height="2.05" transform="translate(-20.63 51.8) rotate(-10.28)"/><polygon class="cls-53" points="245.96 126.9 252.99 165.66 275.4 161.62 276.56 167.42 250.49 172.75 240.18 129.13 245.96 126.9"/><polygon class="cls-54" points="214.34 243.81 198.75 239.65 212.36 235.69 214.34 243.81"/><path class="cls-18" d="M226.34,220.77v-.08a1.75,1.75,0,1,0-3.5,0v.08a1.75,1.75,0,0,0,3.49,0Z"/><path class="cls-35" d="M121.64,164c0,.55,1.24,20.38,1.24,20.38l25.35-6.95.69,4.34,2.48-5.08,5.09-1V156.8Z"/><text class="cls-27" transform="translate(127.22 176.7) rotate(-11.02)">PHP</text></g></svg>