<svg fill="none" viewBox="0 0 300 41" xmlns="http://www.w3.org/2000/svg">
  <path fill="#fff" d="M36.272 12.535h3.752v12.41l8.054-12.41h3.996v18.647h-3.752V19.018L40.3 31.182h-4.027V12.535zM57.23 12.535h7.962c1.587 0 2.746.061 3.539.185.763.123 1.464.37 2.074.772.61.401 1.13.895 1.526 1.543.396.649.61 1.39.61 2.192a4.1 4.1 0 01-.763 2.409c-.488.74-1.19 1.265-2.044 1.636 1.22.34 2.136.895 2.807 1.698.64.803.976 1.729.976 2.81 0 .833-.213 1.666-.64 2.47-.428.802-1.007 1.45-1.74 1.913-.732.494-1.616.772-2.684.896-.671.061-2.288.123-4.85.123H57.23V12.535zm4.027 3.087v4.322h2.623c1.556 0 2.532-.03 2.929-.061.702-.062 1.22-.31 1.617-.68.396-.37.58-.864.58-1.45 0-.587-.184-1.05-.52-1.42-.335-.371-.853-.587-1.524-.65-.397-.03-1.556-.061-3.448-.061h-2.257zm0 7.44v5.002h3.722c1.433 0 2.38-.03 2.745-.123.61-.093 1.098-.34 1.465-.741.366-.402.549-.927.549-1.575 0-.556-.153-1.05-.427-1.42-.275-.37-.702-.68-1.251-.865-.55-.185-1.74-.277-3.57-.277h-3.233z"/>
  <path fill="#fff" d="M91.702 31.182H87.34l-1.739-4.23h-7.962l-1.647 4.23H71.72l7.748-18.647h4.24l7.993 18.647zm-7.382-7.378l-2.746-6.916-2.684 6.915h5.43zM93.014 31.182V12.535h4.027v7.348h7.871v-7.348h4.026v18.647h-4.026v-8.15h-7.871v8.15h-4.027zM122.666 12.535h4.027v15.529h7.779v-15.53h4.027v15.53h1.647v7.194h-3.355v-4.076h-14.155V12.535h.03zM144.692 12.535h3.752v12.41l8.054-12.41h3.996v18.647h-3.752V19.018l-8.023 12.164h-4.027V12.535zM165.589 31.182V12.535h6.01l3.599 12.72 3.57-12.72h6.04v18.647h-3.722V16.486l-3.966 14.696h-3.874l-3.935-14.696v14.696h-3.722zM188.865 12.535h14.887v3.118h-10.86v4.322h5.369c1.495 0 2.715.185 3.691.494.977.34 1.8.957 2.502 1.883.702.927 1.037 1.976 1.037 3.211 0 1.266-.335 2.347-1.037 3.242s-1.495 1.513-2.38 1.852c-.884.34-2.166.494-3.813.494h-9.396V12.535zm4.027 15.529h3.905c1.251 0 2.135-.062 2.623-.185.488-.124.946-.37 1.312-.772.366-.401.549-.895.549-1.513 0-.864-.335-1.482-.976-1.883-.671-.401-1.769-.587-3.356-.587h-4.087v4.94h.03z"/>
  <path fill="#fff" d="M223.368 31.182h-4.362l-1.739-4.23h-7.963l-1.647 4.23h-4.271l7.749-18.647h4.24l7.993 18.647zm-7.413-7.378l-2.746-6.916-2.684 6.915h5.43zM227.09 12.535h13.941v18.647h-3.996V15.684h-5.979v7.965c0 2.285-.092 3.86-.245 4.785-.152.927-.549 1.606-1.189 2.1-.641.494-1.617.772-2.959.772-.458 0-1.312-.031-2.563-.124V28.28h.885c.854 0 1.403-.093 1.708-.309.275-.216.427-.74.427-1.574V12.535h-.03zM245.241 12.535h3.752v12.41l8.054-12.41h3.996v18.647h-3.752V19.018l-8.054 12.164h-4.027V12.535h.031zM278.92 24.328l3.905 1.174c-.61 2.037-1.586 3.55-2.99 4.538-1.403.988-3.142 1.482-5.277 1.482-2.654 0-4.82-.834-6.529-2.532-1.708-1.698-2.562-4.013-2.562-6.946 0-3.119.854-5.527 2.562-7.225 1.709-1.729 3.966-2.562 6.742-2.562 2.441 0 4.424.679 5.949 2.037.915.803 1.586 1.945 2.044 3.427l-3.966.896c-.244-.957-.732-1.73-1.464-2.285-.732-.556-1.648-.834-2.715-.834-1.465 0-2.685.495-3.6 1.482-.915.988-1.373 2.594-1.373 4.817 0 2.346.458 4.044 1.373 5.032.915.988 2.074 1.513 3.539 1.513 1.067 0 1.983-.309 2.745-.957.763-.649 1.281-1.698 1.617-3.057zM289.506 31.182V15.684h-5.918v-3.15h15.832v3.15h-5.887v15.498h-4.027zM23.368 31.09V11.578h-4.484V31.09H8.237v4.168H22.33v4.106h4.21V31.09h-3.173zM15.253 11.578L4.271 21.982V8.614H0v23.155L15.253 17.35v-5.773zM0 0v4.631h4.576L0 0z"/>
</svg>