<svg width="35" height="22" viewBox="0 0 35 22" fill="none" xmlns="http://www.w3.org/2000/svg">
<path d="M34.9795 1.11316L22.6748 10.9868L35 18.891V1.33052C35 1.25807 34.9932 1.18561 34.9795 1.11316Z" fill="white"/>
<path d="M21.5674 11.876L20.0156 13.1209C19.2842 13.7072 18.3955 13.997 17.5 13.997C16.6045 13.997 15.7158 13.7072 14.9844 13.1209L13.4326 11.876L0 20.485V20.6629C0 21.4006 0.62207 22 1.38086 22H33.6123C34.3779 22 34.9932 21.4006 34.9932 20.6695V20.485L21.5674 11.876Z" fill="white"/>
<path d="M33.6191 0H1.38087C1.38087 0 1.38087 0 1.37403 0C1.17579 0 1.09376 0.243713 1.24415 0.362275L13.9111 10.5257C13.9111 10.5257 13.9111 10.5257 13.918 10.5323L15.8662 12.1C16.8096 12.8575 18.1836 12.8575 19.127 12.1L33.749 0.362275C33.8994 0.243713 33.8174 0 33.6191 0Z" fill="white"/>
<path d="M0.0205078 1.11316C0.00683594 1.18561 0 1.25807 0 1.33052V18.8844L12.3252 10.9802L0.0205078 1.11316Z" fill="white"/>
</svg>
