<svg width="35" height="18" viewBox="0 0 35 18" fill="none" xmlns="http://www.w3.org/2000/svg">
<path d="M31.2881 6.36667C34.9111 1.58667 34.1113 1.49333 35 0H28.0615C28.0615 0 27.5693 1.67333 27.4189 1.96667C26.0859 4.61333 23.0986 8.58 21.2871 8.98C19.5098 9.38 19.7422 5.27333 19.8516 3.5C19.9541 1.85333 19.9404 1.27333 19.8857 0.993333C19.8105 0.58 19.4551 0.273333 19.0244 0.22C18.1426 0.113333 16.5361 -0.0466667 14.7314 0.04L13.125 0.0933333C13.7607 1.48 14.1914 1.05333 14.4238 2.65333C14.6904 4.52667 14.5811 9.08667 12.6875 9.08667C9.65234 9.08667 6.24805 0.2 6.13867 0H0L0.560547 1.37333C5.08594 12.4267 10.7529 17.5467 18.498 17.9733L19.5098 18L19.585 17.0467C19.6943 15.5733 20.4531 13.4467 21.7998 13.4467C23.7891 13.4467 24.3633 14.0133 25.6758 15.5933C26.9336 17.1067 27.8018 18 29.8389 18H35L34.2617 16.5533C33.1133 14.3 30.8027 12.3667 29.9004 11.2467C29.5723 10.8267 29.251 10.16 29.5859 9.35333C29.8594 8.65333 30.666 7.18667 31.2881 6.36667Z" fill="white"/>
</svg>
